<svg width="306" height="30" viewBox="0 0 306 30" fill="none" xmlns="http://www.w3.org/2000/svg">
<path d="M0.344391 22.8889V29.7431H29.4277V11.7847H7.19856V7.5139H29.4277V0.659729H0.344391V18.6389H22.5736V22.8889H0.344391Z" fill="white"/>
<path d="M33.7476 0.659729V7.5139H44.8517V29.7431H51.7267V7.5139H62.8309V0.659729H33.7476Z" fill="white"/>
<path d="M96.2341 0.659729H67.1507V29.7431H74.0049V24.1806H89.3799V29.7431H96.2341V0.659729ZM74.0049 17.3264V7.5139H89.3799V17.3264H74.0049Z" fill="white"/>
<path d="M100.554 0.659729V29.7431H107.408V24.1806H115.783L121.221 29.7431H129.554L124.033 24.1806H129.637V0.659729H100.554ZM107.408 17.3264V7.5139H122.783V17.3264H107.408Z" fill="white"/>
<path d="M165.413 17.3264H150.038V7.5139H165.413V17.3264ZM143.184 29.7431H150.038V24.1806H172.267V0.659729H143.184V29.7431Z" fill="#3A0BE2"/>
<path d="M183.441 0.659729H176.587V29.7431H183.441V18.6389H198.816V29.7431H205.67V0.659729H198.816V11.7847H183.441V0.659729Z" fill="#3A0BE2"/>
<path d="M216.844 7.5139H232.219V22.8889H216.844V7.5139ZM209.99 29.7431H239.073V0.659729H209.99V29.7431Z" fill="#3A0BE2"/>
<path d="M265.622 0.659729V16.3264L250.247 5.4514V0.659729H243.393V29.7431H250.247V14.1181L265.622 25.0139V29.7431H272.164L272.477 29.9514V0.659729H265.622Z" fill="#3A0BE2"/>
<path d="M305.88 7.5139V0.659729H276.796V29.7431H305.88V22.8889H283.651V18.6389H305.88V11.7847H283.651V7.5139H305.88Z" fill="#3A0BE2"/>
</svg>
